<?xml version="1.0" encoding="UTF-8" standalone="no"?>
<!-- Created with Inkscape (http://www.inkscape.org/) -->

<svg
   xmlns:dc="http://purl.org/dc/elements/1.1/"
   xmlns:cc="http://creativecommons.org/ns#"
   xmlns:rdf="http://www.w3.org/1999/02/22-rdf-syntax-ns#"
   xmlns:svg="http://www.w3.org/2000/svg"
   xmlns="http://www.w3.org/2000/svg"
   xmlns:sodipodi="http://sodipodi.sourceforge.net/DTD/sodipodi-0.dtd"
   xmlns:inkscape="http://www.inkscape.org/namespaces/inkscape"
   width="500"
   height="500"
   id="svg2"
   version="1.1"
   inkscape:version="0.91 r13725"
   sodipodi:docname="create-new.svg">
  <defs
     id="defs4" />
  <sodipodi:namedview
     id="base"
     pagecolor="#ffffff"
     bordercolor="#666666"
     borderopacity="1.0"
     inkscape:pageopacity="0.0"
     inkscape:pageshadow="2"
     inkscape:zoom="0.70000001"
     inkscape:cx="419.60861"
     inkscape:cy="399.08516"
     inkscape:document-units="px"
     inkscape:current-layer="layer2"
     showgrid="false"
     inkscape:snap-bbox="true"
     inkscape:window-width="1920"
     inkscape:window-height="1043"
     inkscape:window-x="4480"
     inkscape:window-y="0"
     inkscape:window-maximized="1" />
  <metadata
     id="metadata7">
    <rdf:RDF>
      <cc:Work
         rdf:about="">
        <dc:format>image/svg+xml</dc:format>
        <dc:type
           rdf:resource="http://purl.org/dc/dcmitype/StillImage" />
        <dc:title></dc:title>
      </cc:Work>
    </rdf:RDF>
  </metadata>
  <g
     inkscape:groupmode="layer"
     id="layer2"
     inkscape:label="SUN"
     style="display:inline">
    <path
       id="shape0"
       d="m 464.37743,149.25632 c 35.28026,2.4852 49.65617,44.46117 22.64132,66.1722 l -41.6177,33.44961 c -0.91906,0.73495 -1.44936,1.81926 -1.44936,2.96008 0,1.14198 0.5303,2.22518 1.44936,2.96124 l 41.6177,33.44734 c 27.06953,21.75967 12.58199,63.69379 -22.64132,66.17447 l -54.37127,3.83069 c -1.1999,0.0825 -2.29947,0.66256 -3.00579,1.58631 -0.70707,0.9249 -0.94752,2.09741 -0.65913,3.20545 l 12.96551,50.28864 c 8.41446,32.63552 -29.18476,58.58541 -59.27582,40.89841 l -46.35828,-27.25017 c -1.0209,-0.60265 -2.27026,-0.74736 -3.41401,-0.3946 -1.14302,0.35278 -2.06428,1.16684 -2.51745,2.22403 l -20.63696,47.92325 c -13.43589,31.20072 -59.91023,31.02095 -73.26748,0 l -20.63844,-47.92325 c -0.45243,-1.0583 -1.37371,-1.87238 -2.51672,-2.22515 -1.14374,-0.35164 -2.39235,-0.20693 -3.41326,0.39572 l -46.35976,27.25017 c -30.08583,17.68589 -67.689699,-8.25951 -59.275073,-40.89731 l 12.966251,-50.28974 c 0.288371,-1.10804 0.04711,-2.28055 -0.659875,-3.2043 -0.706328,-0.92375 -1.806645,-1.50492 -3.005811,-1.58633 l -54.371701,-3.8307 C 1.2812518,351.9383 -13.092993,309.96009 13.921777,288.24792 l 41.616666,-33.44735 c 0.919345,-0.73607 1.449873,-1.81924 1.449873,-2.96007 0,-1.14199 -0.530528,-2.22518 -1.449873,-2.96122 L 13.920731,215.43079 c -27.006607,-21.70426 -12.6507135,-63.687 22.640655,-66.17333 l 54.371937,-3.83069 c 1.199165,-0.0813 2.298718,-0.66258 3.005799,-1.58632 0.706314,-0.92378 0.948258,-2.09629 0.659135,-3.20431 L 81.633497,90.345585 C 73.220891,57.711983 110.81602,31.760938 140.90857,49.447829 l 46.35899,27.250292 c 1.02094,0.602988 2.26952,0.747373 3.41252,0.394591 1.14377,-0.352755 2.06507,-1.166736 2.51747,-2.224229 l 20.63844,-47.923605 c 13.39172,-31.0967497 59.87204,-31.1064448 73.26824,0 l 20.63696,47.922577 c 2.71669,6.104108 3.75569,9.695063 -0.33123,14.650901 l -12.23841,10.875684 c 0,0 -14.73077,13.55203 -25.23651,-10.843532 L 250.46974,44.351463 231.005,89.552428 C 220.48277,113.98487 189.36856,123.55289 165.76924,109.6818 l -43.72396,-25.702757 12.22924,47.431977 c 6.61009,25.64237 -12.64194,50.74768 -40.31968,52.6992 l -51.28049,3.61248 39.252006,31.54897 c 21.218944,17.05384 21.183744,48.11094 0,65.13651 l -39.253052,31.54896 51.283052,3.61249 c 27.721924,1.95265 46.917004,27.09865 40.318164,52.69806 l -12.22924,47.43367 43.72396,-25.7023 c 23.67573,-13.91848 54.75025,-4.21961 65.23576,20.12701 l 19.46474,45.2006 19.46551,-45.19948 c 10.52445,-24.43369 41.63567,-34.00024 65.23648,-20.12813 l 43.72321,25.7023 -12.22847,-47.43367 c -6.61084,-25.64011 12.64043,-50.74879 40.31816,-52.69806 l 51.28305,-3.61249 -39.25304,-31.54783 c -21.21971,-17.05609 -21.18377,-48.11322 5.3e-4,-65.13877 l 39.25083,-31.54784 -5.56729,-2.18503 c -15.92409,-8.23166 -14.78991,-8.41862 11.67872,-36.28135 z"
       inkscape:connector-curvature="0"
       style="fill:#000000"
       sodipodi:nodetypes="cccsccccccsccccsccccccccccscsccscccsccccscccccccccccccccscccccccccccccccc" />
    <path
       d="m 371.77273,64.325877 66.76543,69.117273 c 2.81272,2.91182 2.81272,7.66268 0,10.57449 l -161.65819,167.35274 -68.68992,7.89255 c -9.1784,1.07277 -16.95042,-6.97303 -15.91415,-16.47474 l 7.62398,-71.10961 161.65819,-167.352703 c 2.81274,-2.91181 7.40193,-2.91181 10.21466,0 z M 491.68402,46.778367 455.56259,9.3845375 c -11.25093,-11.64725 -29.5337,-11.64725 -40.85865,0 L 388.5011,36.510387 c -2.81274,2.91181 -2.81274,7.66267 0,10.57449 l 66.76542,69.117273 c 2.81273,2.91182 7.40193,2.91182 10.21466,0 l 26.20284,-27.125853 c 11.25094,-11.72388 11.25094,-30.65068 0,-42.29793 z"
       id="path4-6"
       inkscape:connector-curvature="0"
       style="display:inline;opacity:1;fill:currentColor"
       sodipodi:nodetypes="sssccccsssscsssscs" />
  </g>
</svg>
