<?xml version="1.0" encoding="UTF-8" standalone="no"?>
<!-- Created with Inkscape (http://www.inkscape.org/) -->

<svg
   xmlns:dc="http://purl.org/dc/elements/1.1/"
   xmlns:cc="http://creativecommons.org/ns#"
   xmlns:rdf="http://www.w3.org/1999/02/22-rdf-syntax-ns#"
   xmlns:svg="http://www.w3.org/2000/svg"
   xmlns="http://www.w3.org/2000/svg"
   xmlns:sodipodi="http://sodipodi.sourceforge.net/DTD/sodipodi-0.dtd"
   xmlns:inkscape="http://www.inkscape.org/namespaces/inkscape"
   width="500"
   height="500"
   id="svg2"
   version="1.1"
   inkscape:version="0.91 r13725"
   sodipodi:docname="create-new.svg">
  <defs
     id="defs4" />
  <sodipodi:namedview
     id="base"
     pagecolor="#ffffff"
     bordercolor="#666666"
     borderopacity="1.0"
     inkscape:pageopacity="0.0"
     inkscape:pageshadow="2"
     inkscape:zoom="0.70000001"
     inkscape:cx="116.03719"
     inkscape:cy="399.08516"
     inkscape:document-units="px"
     inkscape:current-layer="layer3"
     showgrid="false"
     inkscape:snap-bbox="true"
     inkscape:window-width="2560"
     inkscape:window-height="1403"
     inkscape:window-x="1920"
     inkscape:window-y="0"
     inkscape:window-maximized="1" />
  <metadata
     id="metadata7">
    <rdf:RDF>
      <cc:Work
         rdf:about="">
        <dc:format>image/svg+xml</dc:format>
        <dc:type
           rdf:resource="http://purl.org/dc/dcmitype/StillImage" />
        <dc:title />
      </cc:Work>
    </rdf:RDF>
  </metadata>
  <g
     inkscape:groupmode="layer"
     id="layer2"
     inkscape:label="SUN"
     style="display:none"
     sodipodi:insensitive="true">
    <path
       id="shape0"
       d="m 477.63775,219.73286 c 31.67995,13.92442 32.27358,60.26751 0.91624,73.04973 l -48.30834,19.69433 c -1.06569,0.43121 -1.87909,1.33552 -2.22206,2.46817 -0.34332,1.13376 -0.18156,2.38141 0.44187,3.41063 l 28.19641,46.72232 c 18.33855,30.39412 -7.58446,67.32242 -40.70502,58.34671 L 364.831,409.57116 c -1.12768,-0.30776 -2.31271,-0.0889 -3.23962,0.5988 -0.92794,0.68865 -1.50145,1.77465 -1.56952,2.9684 l -3.20183,54.13805 c -2.07759,35.13374 -44.43769,48.68718 -66.77783,21.35527 l -34.41673,-42.10911 c -0.75715,-0.92985 -1.86198,-1.47925 -3.01928,-1.50046 -1.15663,-0.021 -2.24814,0.48807 -2.98249,1.39055 l -33.37568,40.87742 c -21.72952,26.61347 -64.39139,11.34271 -67.34226,-23.79321 l -4.56171,-54.28139 c -0.0977,-1.19761 -0.6997,-2.30503 -1.64423,-3.02646 -0.94553,-0.72053 -2.13666,-0.98233 -3.25618,-0.71556 L 88.640538,417.4729 C 55.670692,425.2616 28.908133,387.29084 46.454501,357.61999 L 73.49129,311.90203 c 0.598172,-1.00644 0.728925,-2.24887 0.356834,-3.39557 -0.371491,-1.1465 -1.2081,-2.08081 -2.285816,-2.55107 L 22.739379,284.49529 C -8.9416886,270.5717 -9.5331194,224.22692 21.824492,211.44353 l 48.306703,-19.69242 c 1.06629,-0.43221 1.879558,-1.33532 2.222536,-2.46797 0.343331,-1.13379 0.181357,-2.38148 -0.442355,-3.4108 L 43.715309,139.1489 C 25.417941,108.83022 51.234569,71.810909 84.419374,80.803106 l 51.126476,13.853797 c 1.12661,0.308711 2.31201,0.08871 3.23962,-0.598812 0.92693,-0.687772 1.50181,-1.773298 1.56918,-2.967254 l 3.20308,-54.139707 c 2.07872,-35.1312431 44.43542,-48.687154 66.77697,-21.354865 l 34.41734,42.109463 c 0.75709,0.930202 1.86128,1.479021 3.0179,1.499955 1.15732,0.0212 2.24884,-0.487745 2.98258,-1.390727 l 33.37716,-40.8773 c 21.65766,-26.5245898 64.38197,-11.4399906 67.34295,23.793455 l 4.56056,54.280233 c 0.66184,6.942506 0.53723,10.845106 -4.70911,14.438156 l -14.51833,6.82324 c 0,0 -17.61377,8.67098 -19.93561,-18.961096 L 312.5677,46.115873 281.08785,84.671233 C 264.07119,105.51122 232.59668,104.90637 215.07607,83.47113 L 182.61542,43.7538 179.59569,94.8166 c -1.63361,27.60485 -26.87638,46.27791 -52.90249,39.22723 L 78.473767,120.97731 105.0665,165.04664 c 14.37589,23.82214 5.0065,54.64482 -19.582661,64.66885 L 39.920334,248.29071 85.97,268.53116 c 24.89297,10.94116 34.97581,42.14012 21.21441,65.41279 l -25.500726,43.12172 47.915106,-11.31864 c 25.94549,-6.12998 51.59112,13.59053 53.90906,41.16745 l 4.30147,51.19713 31.48012,-38.55364 c 17.01907,-20.84051 48.49037,-20.23516 66.01206,1.20157 l 32.46009,39.71663 3.02095,-51.06422 c 1.63224,-27.60285 26.87533,-46.27952 52.90074,-39.2266 l 48.2218,13.06733 -26.59404,-44.06853 c -14.3759,-23.82461 -5.00583,-54.64708 19.58384,-64.67091 l 45.56113,-18.57484 -4.46015,-3.97729 c -12.16152,-13.34381 -11.06285,-13.16112 21.64189,-32.22825 z"
       inkscape:connector-curvature="0"
       style="fill:#000000"
       sodipodi:nodetypes="cccsccccccsccccsccccccccccscsccscccsccccscccccccccccccccscccccccccccccccc"
       inkscape:transform-center-x="4.421544"
       inkscape:transform-center-y="-9.4159962" />
  </g>
  <g
     inkscape:groupmode="layer"
     id="layer1"
     inkscape:label="pen"
     style="display:none"
     sodipodi:insensitive="true">
    <path
       d="m 373.04873,131.46458 66.76543,69.11727 c 2.81272,2.91182 2.81272,7.66268 0,10.57449 l -161.65819,167.35274 -68.68992,7.89255 c -9.1784,1.07277 -16.95042,-6.97303 -15.91415,-16.47474 l 7.62398,-71.10961 161.65819,-167.3527 c 2.81274,-2.91181 7.40193,-2.91181 10.21466,0 z M 492.96002,113.91707 456.83859,76.52324 c -11.25093,-11.64724 -29.5337,-11.64724 -40.85865,0 l -26.20284,27.12585 c -2.81274,2.91181 -2.81274,7.66267 0,10.57449 l 66.76542,69.11727 c 2.81273,2.91182 7.40193,2.91182 10.21466,0 L 492.96002,156.215 c 11.25094,-11.72388 11.25094,-30.65068 0,-42.29793 z"
       id="path4-6"
       inkscape:connector-curvature="0"
       style="display:inline;opacity:1;fill:currentColor"
       sodipodi:nodetypes="sssccccsssscsssscs" />
  </g>
  <g
     inkscape:groupmode="layer"
     id="layer3"
     inkscape:label="joined">
    <path
       id="shape0-7"
       style="display:inline;fill:#000000"
       d="m 477.63775,219.73286 c 31.67995,13.92442 32.27358,60.26751 0.91624,73.04973 l -48.30834,19.69433 c -1.06569,0.43121 -1.87909,1.33552 -2.22206,2.46817 -0.34332,1.13376 -0.18156,2.38141 0.44187,3.41063 l 28.19641,46.72232 c 18.33855,30.39412 -7.58446,67.32242 -40.70502,58.34671 L 364.831,409.57116 c -1.12768,-0.30776 -2.31271,-0.0889 -3.23962,0.5988 -0.92794,0.68865 -1.50145,1.77465 -1.56952,2.9684 l -3.20183,54.13805 c -2.07759,35.13374 -44.43769,48.68718 -66.77783,21.35527 l -34.41673,-42.10911 c -0.75715,-0.92985 -1.86198,-1.47925 -3.01928,-1.50046 -1.15663,-0.021 -2.24814,0.48807 -2.98249,1.39055 l -33.37568,40.87742 c -21.72952,26.61347 -64.39139,11.34271 -67.34226,-23.79321 l -4.56171,-54.28139 c -0.0977,-1.19761 -0.6997,-2.30503 -1.64423,-3.02646 -0.94553,-0.72053 -2.13666,-0.98233 -3.25618,-0.71556 L 88.640538,417.4729 C 55.670692,425.2616 28.908133,387.29084 46.454501,357.61999 L 73.49129,311.90203 c 0.598172,-1.00644 0.728925,-2.24887 0.356834,-3.39557 -0.371491,-1.1465 -1.2081,-2.08081 -2.285816,-2.55107 L 22.739379,284.49529 C -8.9416885,270.5717 -9.5331193,224.22692 21.824492,211.44353 l 48.306703,-19.69242 c 1.06629,-0.43221 1.879558,-1.33532 2.222536,-2.46797 0.343331,-1.13379 0.181357,-2.38148 -0.442355,-3.4108 L 43.715309,139.1489 C 25.417941,108.83022 51.234569,71.81091 84.419374,80.803107 l 51.126476,13.853797 c 1.12661,0.308711 2.31201,0.08871 3.23962,-0.598812 0.92693,-0.687772 1.50181,-1.773298 1.56918,-2.967254 l 3.20308,-54.139707 c 2.07872,-35.131243 44.43542,-48.687154 66.77697,-21.354865 l 34.41734,42.109463 c 0.75709,0.930202 1.86128,1.479021 3.0179,1.499955 1.15732,0.0212 2.24884,-0.487745 2.98258,-1.390727 l 33.37716,-40.8773 c 21.65766,-26.52459 64.38197,-11.4399905 67.34295,23.793455 l 4.56056,54.280233 c 0.66184,6.942505 0.53723,10.845105 -4.70911,14.438155 l -14.51833,6.82324 c 0,0 -17.61377,8.67098 -19.93561,-18.961095 l -4.30244,-51.195771 -31.47985,38.55536 c -17.01666,20.839986 -48.49117,20.235136 -66.01178,-1.200103 l -32.46065,-39.71733 -3.01973,51.0628 C 177.96208,122.42145 152.71931,141.09451 126.6932,134.04383 L 78.473767,120.97731 105.0665,165.04664 c 14.37589,23.82214 5.0065,54.64482 -19.582661,64.66885 L 39.920334,248.29071 85.97,268.53116 c 24.89297,10.94116 34.97581,42.14012 21.21441,65.41279 l -25.500726,43.12172 47.915106,-11.31864 c 25.94549,-6.12998 51.59112,13.59053 53.90906,41.16745 l 4.30147,51.19713 31.48012,-38.55364 c 17.01907,-20.84051 48.49037,-20.23516 66.01206,1.20157 l 32.46009,39.71663 3.02095,-51.06422 c 1.63224,-27.60285 26.87533,-46.27952 52.90074,-39.2266 l 48.2218,13.06733 -26.59404,-44.06853 c -14.3759,-23.82461 -5.00583,-54.64708 19.58384,-64.67091 l 45.56113,-18.57484 -4.46015,-3.97729 c -12.16152,-13.34381 -11.06285,-13.16112 21.64189,-32.22825 z m -104.58902,-88.26828 66.76543,69.11727 c 2.81272,2.91182 2.81272,7.66268 0,10.57449 l -161.65819,167.35274 -68.68992,7.89255 c -9.1784,1.07277 -16.95042,-6.97303 -15.91415,-16.47474 l 7.62398,-71.10961 161.65819,-167.3527 c 2.81274,-2.91181 7.40193,-2.91181 10.21466,0 z M 492.96002,113.91707 456.83859,76.52324 c -11.25093,-11.64724 -29.5337,-11.64724 -40.85865,0 l -26.20284,27.12585 c -2.81274,2.91181 -2.81274,7.66267 0,10.57449 l 66.76542,69.11727 c 2.81273,2.91182 7.40193,2.91182 10.21466,0 L 492.96002,156.215 c 11.25094,-11.72388 11.25094,-30.65068 0,-42.29793 z" />
  </g>
</svg>
